<svg width="118" height="118" xmlns="http://www.w3.org/2000/svg" xmlns:xlink="http://www.w3.org/1999/xlink" overflow="hidden"><defs><clipPath id="clip0"><path d="M80 75 198 75 198 193 80 193Z" fill-rule="evenodd" clip-rule="evenodd"/></clipPath></defs><g clip-path="url(#clip0)" transform="translate(-80 -75)"><path d="M146.555 136.543C148.528 136.543 150.127 137.829 150.127 139.416 150.127 141.003 148.528 142.289 146.555 142.289 144.583 142.289 142.984 141.003 142.984 139.416 142.984 137.829 144.583 136.543 146.555 136.543ZM136.587 124.612C139.201 124.612 141.319 126.355 141.319 128.506 141.319 130.656 139.201 132.399 136.587 132.399 133.973 132.399 131.854 130.656 131.854 128.506 131.854 126.355 133.973 124.612 136.587 124.612ZM124.806 114.57C126.778 114.57 128.377 115.856 128.377 117.443 128.377 119.03 126.778 120.316 124.806 120.316 122.834 120.316 121.235 119.03 121.235 117.443 121.235 115.856 122.834 114.57 124.806 114.57ZM159.793 95.9888 159.793 100.661 153.08 100.661 153.08 132.99 151.523 132.668 148.408 130.681 143.843 125.847 138.473 119.457 132.834 112.153 126.551 104.366 122.953 100.016 120.322 97.8147 118.012 97.7073 117.1 98.9424 116.885 104.581 116.885 151.732 109.313 151.732 103.405 166.876 112.374 166.876 112.374 171.011 119.248 171.011 119.248 166.608 126.229 166.608 126.229 135.621 127.679 136.212 130.31 138.414 136.218 144.375 142.555 151.893 148.193 158.499 152.758 163.01 156.141 165.91 157.538 166.232 159.041 165.158 160.062 162.848 160.384 154.632 160.706 132.077 161.082 115.322 167.956 115.322 173.595 100.392 165.647 100.392 165.647 95.9888ZM138.5 75C170.809 75 197 101.191 197 133.5 197 165.809 170.809 192 138.5 192 106.191 192 80 165.809 80 133.5 80 101.191 106.191 75 138.5 75Z" fill="#F2F2F2" fill-rule="evenodd"/></g></svg>