/* XPM */
static char *cb0c0_fvx8t[] = {
/* columns rows colors chars-per-pixel */
"16 16 155 2 ",
"   c None",
".  c #8E7012",
"X  c #8D7017",
"o  c #8E711A",
"O  c #8F741F",
"+  c #957A28",
"@  c #92792C",
"#  c #9C8337",
"$  c #A18B44",
"%  c #A48F51",
"&  c #A59150",
"*  c #AD9854",
"=  c #BEA65B",
"-  c #BCA55C",
";  c #BDA55C",
":  c #BFA85F",
">  c #AB9960",
",  c #AF9C61",
"<  c #B5A163",
"1  c #B4A36D",
"2  c #B7A777",
"3  c #B5A678",
"4  c #C7AF65",
"5  c #C7B067",
"6  c #C9B36E",
"7  c #CCB66E",
"8  c #CDB66E",
"9  c #CDB76E",
"0  c #C8B370",
"q  c #CFB870",
"w  c #CDB875",
"e  c #C1B07B",
"r  c #CEBA78",
"t  c #D2BB72",
"y  c #D2BD74",
"u  c #D3BD76",
"i  c #D0BA7A",
"p  c #D0BB7A",
"a  c #D3C07C",
"s  c #B9AC81",
"d  c #BDAE81",
"f  c #BBAD84",
"g  c #C6B991",
"h  c #C7BC99",
"j  c #C7BD9F",
"k  c #D5C181",
"l  c #D6C284",
"z  c #D6C287",
"x  c #D8C486",
"c  c #D7CC83",
"v  c #DCC984",
"b  c #DCCA85",
"n  c #D8C488",
"m  c #DCC888",
"M  c #DECE9F",
"N  c #E3D28B",
"B  c #E2D395",
"V  c #E1D096",
"C  c #E3D892",
"Z  c #E3D893",
"A  c #EADB97",
"S  c #E4D49B",
"D  c #EADF9D",
"F  c #ECE09E",
"G  c #C8C0A9",
"H  c #CAC4AF",
"J  c #D5CAAA",
"K  c #D1C8AE",
"L  c #D8CDA9",
"P  c #CBC4B0",
"I  c #CFCABA",
"U  c #DDD4B6",
"Y  c #E2D3A5",
"T  c #E4D5A7",
"R  c #E7DBA0",
"E  c #E6D8AE",
"W  c #E9DCB2",
"Q  c #E6DBB8",
"!  c #F0E1A7",
"~  c #EFE4BA",
"^  c #EEE2BD",
"/  c #F4EABF",
"(  c #D8D3C5",
")  c #D8D4C9",
"_  c #DEDBD4",
"`  c #E2DBC3",
"'  c #E2DCC8",
"]  c #E1DDCF",
"[  c #E1DED6",
"{  c #EDE2C1",
"}  c #EDE2C2",
"|  c #EEE4C3",
" . c #EBE2C5",
".. c #EEE6CD",
"X. c #F2EAC1",
"o. c #E3E0D4",
"O. c #E6E2D6",
"+. c #EBE5D2",
"@. c #EEE7D2",
"#. c #E7E3D8",
"$. c #E4E2DA",
"%. c #E6E3DC",
"&. c #EEE9D9",
"*. c #EBE8DC",
"=. c #F3ECD1",
"-. c #F0E9D6",
";. c #F1EBD8",
":. c #F4EEDB",
">. c #F3EDDC",
",. c #F9F1D0",
"<. c #F6F0DC",
"1. c #EEEBE1",
"2. c #EDEBE3",
"3. c #EEEBE4",
"4. c #EEECE6",
"5. c #F3EFE0",
"6. c #F3EFE4",
"7. c #F1EFE6",
"8. c #F5F0E0",
"9. c #F4F0E2",
"0. c #F4F0E3",
"q. c #F5F1E3",
"w. c #F4F1E6",
"e. c #F9F5E0",
"r. c #F8F4E3",
"t. c #F8F3E4",
"y. c #FBF7E5",
"u. c #F9F5E7",
"i. c #F6F3E8",
"p. c #F8F4E8",
"a. c #F9F6ED",
"s. c #F9F7EE",
"d. c #FAF7EF",
"f. c #FBF8EA",
"g. c #FCF9EB",
"h. c #FBF8EE",
"j. c #FAF8EF",
"k. c #FCF9ED",
"l. c #FCF9EF",
"z. c #F9F7F1",
"x. c #FBF8F0",
"c. c #FBF9F0",
"v. c #FBF9F1",
"b. c #FCF9F0",
"n. c #FCFAF0",
"m. c #FDFAF0",
"M. c #FCFAF1",
"N. c #FDFAF1",
"B. c #FCFAF2",
"V. c #FDFAF2",
"C. c #FDFBF2",
"Z. c #FDFAF3",
"A. c #FDFBF3",
"S. c #FEFCF3",
"D. c #FDFBF4",
/* pixels */
"          8 t u q 4 -           ",
"      7 m ^ <.t.8...M 5         ",
"    9 T p.B.M.n.M.N.c.@.i       ",
"  6 Y a.N.N.m.n.n.N.N.C.>.w     ",
"  n 0.N.N.l.d.n.j.2.O.*.z. .=   ",
"0 Q v.N.a.$.] x.%.K e $ d 6.z   ",
"p -.V.b.[ 3 , 3.H J 1.2 o ' E   ",
"l 9.V.s.I O # ) f &.c.( < +.} ; ",
"x q.b.4.G @ + j g B.n.7.w.D.{ : ",
"k :.3.P s > X % ` S.m.m.m.Z.W   ",
"r | _ & 1 h . * i.N.m.m.N.h.V   ",
"  S o.U 5.#.L ;.M.m.m.N.A.=.y   ",
"  a ~ B.V.b.B.M.n.m.m.C.u.B     ",
"    v / k.V.m.b.n.N.A.r.R       ",
"      b ! ,.y.g.f.e.X.Z         ",
"          N A F D C c           "
};
