/* XPM */
static char *cbgej_3is5o[] = {
/* columns rows colors chars-per-pixel */
"32 32 186 2 ",
"   c None",
".  c #806205",
"X  c #876806",
"o  c #896907",
"O  c #856709",
"+  c #87690B",
"@  c #896A09",
"#  c #8F700E",
"$  c #8B6E14",
"%  c #886C18",
"&  c #8E721A",
"*  c #977815",
"=  c #927415",
"-  c #8B7328",
";  c #917626",
":  c #947A2A",
">  c #957D32",
",  c #937E3C",
"<  c #9C853D",
"1  c #A08425",
"2  c #A38B3A",
"3  c #B5983F",
"4  c #B99B3C",
"5  c #C8A63D",
"6  c #C3A23F",
"7  c #9B8542",
"8  c #9E8844",
"9  c #9E8948",
"0  c #9E8B51",
"q  c #A28B42",
"w  c #A48E4D",
"e  c #A6914F",
"r  c #AF9649",
"t  c #AE9546",
"y  c #B49740",
"u  c #B89D4B",
"i  c #A7955C",
"p  c #A9955A",
"a  c #B09A57",
"s  c #BFA556",
"d  c #B6A15F",
"f  c #BDA55B",
"g  c #AB9A63",
"h  c #B09D63",
"j  c #B3A162",
"k  c #BCA665",
"l  c #BEA967",
"z  c #B4A26C",
"x  c #B9A66B",
"c  c #AEA176",
"v  c #B5A677",
"b  c #BCAB74",
"n  c #B3A57A",
"m  c #B7A87A",
"M  c #BAAA7A",
"N  c #BFB87B",
"B  c #C0A244",
"V  c #CCAB46",
"C  c #C7A848",
"Z  c #CEAE4B",
"A  c #C2A54E",
"S  c #D3B34E",
"D  c #C9AC53",
"F  c #C3A95A",
"G  c #CEB25D",
"H  c #D4B453",
"J  c #D7B857",
"K  c #D4B65B",
"L  c #D6B95D",
"P  c #C1AB64",
"I  c #C1AC6A",
"U  c #CEB96B",
"Y  c #D4B860",
"T  c #DBBF6B",
"R  c #DABD66",
"E  c #C2AF70",
"W  c #C3B176",
"Q  c #CCB974",
"!  c #CBB776",
"~  c #D0BC75",
"^  c #DAC26D",
"/  c #DDC466",
"(  c #DBCD7F",
")  c #D8C672",
"_  c #E2C667",
"`  c #E1C676",
"'  c #E3CB73",
"]  c #E3CB7E",
"[  c #ECD476",
"{  c #E2D57C",
"}  c #EBD47C",
"|  c #EEDB7E",
" . c #B7AA82",
".. c #BBAE87",
"X. c #BDB18B",
"o. c #C3B589",
"O. c #C6B989",
"+. c #C7BB92",
"@. c #C9BC91",
"#. c #C5BB9B",
"$. c #C6BA97",
"%. c #C9BFA0",
"&. c #CAC385",
"*. c #CEC08B",
"=. c #D5C782",
"-. c #DCCB82",
";. c #D4C48B",
":. c #DBC788",
">. c #D8C883",
",. c #CAC099",
"<. c #D7C892",
"1. c #DCCA94",
"2. c #E3CB82",
"3. c #E3CF8C",
"4. c #EDDC83",
"5. c #E6D08D",
"6. c #E8D089",
"7. c #EDDC8B",
"8. c #F3DD83",
"9. c #E1CF99",
"0. c #E7D290",
"q. c #E8D699",
"w. c #F0DE9A",
"e. c #F1E186",
"r. c #F4E38C",
"t. c #F6E79A",
"y. c #CBC2A4",
"u. c #CCC6B4",
"i. c #D5CDB4",
"p. c #D2CCBA",
"a. c #D8D1BB",
"s. c #E3D4A5",
"d. c #E6D9A7",
"f. c #E4D5A8",
"g. c #E3D7B0",
"h. c #E0D7BA",
"j. c #E4DABD",
"k. c #EADFBA",
"l. c #EBDCB1",
"z. c #ECE2AE",
"x. c #F7E9A5",
"c. c #F0E5AE",
"v. c #F7EAA8",
"b. c #F8E9A8",
"n. c #F0E6BE",
"m. c #CFCDC7",
"M. c #CFCECA",
"N. c #D0CCC1",
"B. c #D7D3C7",
"V. c #DBD5C3",
"C. c #D3D2CD",
"Z. c #D9D6CD",
"A. c #D4D3D0",
"S. c #D8D7D2",
"D. c #DCDAD5",
"F. c #DFDED8",
"G. c #E5DDC4",
"H. c #E3DDCC",
"J. c #E0DED6",
"K. c #E0DFDD",
"L. c #E9E0C2",
"P. c #EBE5CE",
"I. c #F2E6C0",
"U. c #F6EEC9",
"Y. c #F8F1CF",
"T. c #EAE5D3",
"R. c #E5E3DC",
"E. c #E8E5DD",
"W. c #EDEADD",
"Q. c #F3ECD2",
"!. c #F0EBDA",
"~. c #F8F2DC",
"^. c #E9E7E3",
"/. c #EDEBE4",
"(. c #ECEBE9",
"). c #F1EEE6",
"_. c #F2EFE8",
"`. c #F3F0E6",
"'. c #F8F3E2",
"]. c #F5F3EB",
"[. c #F9F6ED",
"{. c #FCF9EF",
"}. c #F9F7F1",
"|. c #FDFAF1",
" X c #FDFCF8",
".X c #F6F5F2",
/* pixels */
"                        O.I P f f k v                           ",
"                  @.P V S Y T ) T L Z 6 u z                     ",
"              ,.F V ] I.'.[.[.[.].).W.j.:.V 4 h                 ",
"            W V ] Q.[.{.[.{.}.{.{.{.[.]./.P.:.5 r               ",
"          I S l.].[.{.|.{.|.|.{.{.|.{.|.|.{.).a.H y             ",
"        I J L.).{.|.|.|.|.|.|.{.|.|.|.|.|.|.|.[.H.Y y           ",
"      b H G.).{.|.{.{.|.{.{.|.{.{.|.{.{.{.|.{.|.[.H.K y         ",
"      Z f./.|.|.|.|.|.|.|.|.|.|.|.|.|.|.|.|.|.|.|.[.h.Z 0       ",
"    F 2.R.{.{.{.|.{.|.|.|.{.|.{.{.|.{.].).).].[.}.|.].1.B       ",
"  X.K j.].|.{.{.{.{.|.{.].[.{.{.{.{.R.S.K.R.E./.].[.}.T.K w     ",
"  I 2.R.|.|.|.|.|.|.{.R.D..X|.|.{.J.S.V.b q < g y./.}.[.1.B     ",
"  G g.).|.{.{.|.|.`.Z.S.i.H. X|.E.M.p.l ;.l & @ + i _. XG.H     ",
"n R H.[.{.|.{.|.].C.D.$.; +. X].M.B.p H..X^.#.$ @ & V. X/.R e   ",
"z ` R.{.|.|.|.|.D.C.m $ X v  XD.C.v M  X|.E.R.v @ + ,. X[.:.u   ",
"k 2.^.{.{.{.{.{.Z.N.; @ @ p ].m.p.< H.|.|.[.D.p.& * @. X[.9.A   ",
"I 6.).{.|.|.{.{.C.u.& O @ 7 F.A.z h |.|.|.|.R.Z.z <.`.|.}.s.D   ",
"I 0./.|.|.|.|.`.M.#.% % @ : D.B.> i. X|.|.|.].D.W.}. X{.|.f.D   ",
"l 6./.|.|.}./.D.D.n 7 > o & H.X.q `.|.|.|.{.{.[.}.|.|.{.{.q.D   ",
"x ] W.|.|./.m.D.^.i m 7 o $ #.< o. X|.|.|.|.{.|.{.|.|.|.[.6.s   ",
"c ' T.{.[.C.Z.i  .7 a.q @ @ , : H. X|.|.|.|.|.|.|.|.|.|./.] a   ",
"  T k.]./.M.X.O - g (.9 o @ . e ].|.|.{.|.{.{.|.{.{.|.|.P._     ",
"  Q q.).E.C.g # 2 i.(.v o # 1 @. X|.{.{.|.|.|.|.|.|.|.|.d.Y     ",
"   .' U.R.C.b ;.!.}.^.S.h Q L.].|.|.|.|.|.|.|.|.|.|. XW.} d     ",
"    U w.W.E.).}. X{.].E./.[. X{.{.{.{.|.|.{.{.|.{.|.}.d./       ",
"      ' n.[.|.|.|.{.|.{.{.|.|.{.{.|.|.{.|.{.|.|.|. XP.[ j       ",
"      W } Q.|.|.|.|.|.|.|.|.|.{.|.|.|.|.|.|.|.|. XW.4.U         ",
"        Q 8.Q.|.|.{.{.{.{.{.{.{.{.|.{.{.|.{.{. X!.7.)           ",
"          ~ 8.U.|.|.|.|.|.|.|.|.|.|.|.{.|. X|.P.e.)             ",
"            ! } b.~.|. X|.|.|.|.|.|.|. X X`.z.| )               ",
"              O.' e.b.Y.'.|.|.|.|.|.[.Q.c.e.{ N                 ",
"                  *.] 4.r.t.x.x.x.t.r.4.2.&.                    ",
"                        &.>.( ( ( >.&.                          "
};
