/* XPM */
static char *cbidf_bol74[] = {
/* columns rows colors chars-per-pixel */
"64 64 223 2 ",
"   c None",
".  c #795E09",
"X  c #7F620A",
"o  c #7D6007",
"O  c #7F6926",
"+  c #7A735E",
"@  c #6D6859",
"#  c #7A7565",
"$  c #836405",
"%  c #886907",
"&  c #83650A",
"*  c #87680A",
"=  c #8A6B0B",
"-  c #876807",
";  c #8F700E",
":  c #91710E",
">  c #866B17",
",  c #8E7115",
"<  c #927313",
"1  c #94761A",
"2  c #846D25",
"3  c #8B7224",
"4  c #8B742A",
"5  c #977C27",
"6  c #8D7734",
"7  c #937D38",
"8  c #887B52",
"9  c #817A67",
"0  c #BD9109",
"q  c #B68E15",
"w  c #BC951D",
"e  c #BC9316",
"r  c #B18A16",
"t  c #988038",
"y  c #AC8C29",
"u  c #B49328",
"i  c #A88C38",
"p  c #AE923B",
"a  c #AE9132",
"s  c #B59738",
"d  c #B0902C",
"f  c #C89A0B",
"g  c #CC9E13",
"h  c #C49913",
"j  c #CFA115",
"k  c #D2A51B",
"l  c #D6A81D",
"z  c #C19C2C",
"x  c #D5A923",
"c  c #D6AC2C",
"v  c #DDB12C",
"b  c #DBB339",
"n  c #D1A82B",
"m  c #E0B42D",
"M  c #E5BA37",
"N  c #EEC23F",
"B  c #998547",
"V  c #9D8B54",
"C  c #9C8B59",
"Z  c #938559",
"A  c #8E8158",
"S  c #A38D4A",
"D  c #A68E44",
"F  c #AC9348",
"G  c #B59B44",
"H  c #A18F56",
"J  c #A99558",
"K  c #B39C54",
"L  c #BDA34E",
"P  c #BAA357",
"I  c #978C66",
"U  c #928C76",
"Y  c #999276",
"T  c #878373",
"R  c #AB9961",
"E  c #AB9C6C",
"W  c #A69766",
"Q  c #B09E64",
"!  c #AB9D73",
"~  c #A89C77",
"^  c #B5A46C",
"/  c #B8A664",
"(  c #AAA07A",
")  c #B6A778",
"_  c #BCB47C",
"`  c #C7AA49",
"'  c #DCB747",
"]  c #C8AC57",
"[  c #CEB458",
"{  c #DABB5A",
"}  c #D0AE48",
"|  c #E2BA41",
" . c #E0BC51",
".. c #C6AE64",
"X. c #D7BC68",
"o. c #C1AE75",
"O. c #D4BC74",
"+. c #CBB572",
"@. c #EDC54B",
"#. c #E9C146",
"$. c #F4CB4B",
"%. c #EAC75A",
"&. c #F5CD53",
"*. c #F9D45C",
"=. c #DBC269",
"-. c #DCC77C",
";. c #D7C47A",
":. c #DCD37C",
">. c #E7C967",
",. c #F9D461",
"<. c #FCDC64",
"1. c #F6D766",
"2. c #EBD474",
"3. c #E9D877",
"4. c #F3DA76",
"5. c #EBCC69",
"6. c #FEE36B",
"7. c #FFE76C",
"8. c #FEE573",
"9. c #FEEB73",
"0. c #FEEA7A",
"q. c #F6E378",
"w. c #9D9B92",
"e. c #979384",
"r. c #A39E8E",
"t. c #A59D84",
"y. c #A29F94",
"u. c #AAA185",
"i. c #B4AC8C",
"p. c #B7AB83",
"a. c #BDB18C",
"s. c #BEB183",
"d. c #A9A598",
"f. c #B3AE95",
"g. c #B4AD98",
"h. c #BDB498",
"j. c #ADAAA3",
"k. c #BAB7AE",
"l. c #BBBAB4",
"z. c #BEBDB9",
"x. c #B8B6B2",
"c. c #B2AEA4",
"v. c #C7BA88",
"b. c #C1B694",
"n. c #C4BA9A",
"m. c #C5BDA7",
"M. c #C0BFBA",
"N. c #C1BEB5",
"B. c #D8C986",
"V. c #CCC098",
"C. c #D3C898",
"Z. c #D5CC8A",
"A. c #EAD48A",
"S. c #E7DC86",
"D. c #F4DD86",
"F. c #E8D698",
"G. c #FBE687",
"H. c #F8E798",
"J. c #CAC2A5",
"K. c #CCC4AC",
"L. c #D3C8A7",
"P. c #C4C3BC",
"I. c #CFCABA",
"U. c #CEC9B3",
"Y. c #D2CBB4",
"T. c #D2CDBC",
"R. c #DCD4BB",
"E. c #D6D1BB",
"W. c #DED3A7",
"Q. c #E8D9A8",
"!. c #E3D9B3",
"~. c #F4E6A7",
"^. c #ECE2BA",
"/. c #F1E5B4",
"(. c #F1E3BA",
"). c #EFE1A0",
"_. c #C6C5C1",
"`. c #C8C7C1",
"'. c #CBC9C4",
"]. c #CECDC9",
"[. c #D2CFC4",
"{. c #D0CFCA",
"}. c #D5D1C4",
"|. c #DBD6C4",
" X c #D4D2CC",
".X c #D9D6CB",
"XX c #DDD9CD",
"oX c #DED8C5",
"OX c #D5D4D2",
"+X c #D8D7D3",
"@X c #DCDAD4",
"#X c #DEDEDB",
"$X c #E2DCC6",
"%X c #E1DED4",
"&X c #E1DFDA",
"*X c #EBE2C5",
"=X c #E8E2C9",
"-X c #F2E8C5",
";X c #F0E8C9",
":X c #E5E1D4",
">X c #E4E2DC",
",X c #E9E6DD",
"<X c #EDE9DD",
"1X c #ECE7D2",
"2X c #F1ECDC",
"3X c #F9F3DF",
"4X c #E5E4E2",
"5X c #E9E7E3",
"6X c #ECEAE4",
"7X c #ECECEB",
"8X c #E7E8E5",
"9X c #F1EEE5",
"0X c #F0EFEA",
"qX c #F5F1E6",
"wX c #FAF6E7",
"eX c #F5F2EC",
"rX c #FBF7EA",
"tX c #FCF9EE",
"yX c #F4F4F3",
"uX c #F9F7F2",
"iX c #FDFBF3",
"pX c #FDFDFB",
"aX c #F7F7F8",
/* pixels */
"                                                      #XXX}.}.T.T.[.]. X                                                        ",
"                                              .XK.v./ K p a d d d i p K ^ i.m.P.                                                ",
"                                        .Xn.P a r 0 f f g k k k j j f f 0 r r i E f.l.                                          ",
"                                  5XT._ G w j n ' >.A.Q.(.;X;X;X*X(.Q.F.=.{ c k h u K ) k.                                      ",
"                                E.^ d f k | A.-X3XuXaXrXuXuX0X0X0X9X6X6X<X<X$XF.{ c g e i ! c.                                  ",
"                            @Xs.d h x >.(.wXpXaXrXeXuXeXrXaXrXuXuXeXuXeX0X6X5X&X>X$X-.b g q D t.                                ",
"                          U.K e l %.(.rXuXeXeXrXqXrXuXrXuXiXrXrXuXtXuXiXwXtXeX9X<X&X@X$X-.v g y W d.                            ",
"                        n.a j b Q.qX9XqXqXqXrXiXrXtXiXrXtXiXrXtXtXtXtXtXtXtXuXwXeXwX,X&X&XR.{ x e S t.                          ",
"                    :X_ u l 5.1XeXeXeXuXiXaXiXpXiXiXiXiXiXiXiXiXiXuXiXiXiXiXiXiXiXiXiXuX6X:X@XB.v h p Y                         ",
"                  @X) u x A.9X<X6XeXrXrXiXtXtXiXtXiXiXrXiXiXrXtXiXtXiXiXtXiXiXtXtXiXtXtXrXqX,X@XL.' k i Y                       ",
"                @X) w m Q.<X,X<XrXiXtXtXtXtXtXiXwXtXiXwXtXiXwXtXiXtXtXiXtXtXtXwXiXiXwXtXiXtXrX6X%XY.' x p U                     ",
"                p.u m ).,X4XeXtXiXiXiXiXiXiXiXiXiXiXpXiXiXiXiXiXiXiXiXiXiXiXiXiXiXiXiXiXiXiXiXiX9X&XT.' l p U                   ",
"              h.u m ).>X%X9XiXtXtXiXtXtXiXtXiXiXtXtXiXtXiXiXtXtXiXtXiXiXtXtXiXtXiXiXtXtXiXtXiXiXwX9X&XL.' x D T                 ",
"            K.p v A.&X&X2XtXtXtXtXiXwXtXtXwXtXiXtXtXtXwXtXiXwXtXtXwXtXiXtXtXtXtXtXtXwXiXtXwXtXiXwXuX0X%XL.M n V                 ",
"          [.K c 5.%X@X0XiXiXiXiXiXpXiXiXiXiXiXiXiXiXiXiXiXiXiXiXiXiXiXiXuXiXiXiXiXiXiXiXiXiXiXiXiXiXiX0X&Xv.M z I               ",
"          p.z | *X.X<XuXtXtXiXtXtXiXtXiXiXtXtXiXtXiXiXtXtXiXtXtXiXtXiXiXtXtXiXtXiXiXtXiXiXtXiXiXtXiXiXtX9X XX.m F #             ",
"        N.F m F.@X%XqXiXtXtXiXwXtXiXwXtXiXtXtXtXwXtXtXwXtXtXwXtXtXtXtXiXrXtXtXwXtXiXwXtXiXwXtXiXwXtXiXwXrX6XK. .n V             ",
"        ^ n 5.:X@XeXiXiXtXiXiXiXiXiXiXiXiXiXiXiXiXiXpXiXiXiXiXiXiXiXiXiXiXiXiXeX9X6X>X5X9X0XeXuXiXiXiXiXiXrX>Xv.M s 9           ",
"      N.G M Q.+X6XrXtXiXtXtXiXtXiXiXtXiXiXtXiXiXtXiXiXtXiXiXtXtXiXtXiXiXrX9X&X{.].OX@X&X&X&X4X4X9XrXiXtXiXiX9XT. .M H           ",
"      ) n 5.$X%XrXtXtXiXwXtXiXwXtXtXwXtXiXwXtXiXqX9XrXrXtXiXwXtXtXtXtXrX:X'._. X4XyXyXeXyXyXyXyX5X6X9XqXiXtXwX>Xv.M G #         ",
"    N.K M Q.OX8XiXiXiXpXiXiXiXiXiXpXiXiXiXiXuX6X X+X6XtXiXiXiXiXiXiXrX4XP._.4XyX:Xn.^ K S R a.|.0XaXyX9XuXiXiXeXT. .b Z         ",
"    i.} ,.$X+XeXiXtXiXiXtXiXiXtXiXiXrXiXiXwX:X_.P.4XyXaXiXiXtXiXiXrX>XM._.7X0Xs.t < = * % $ & > 7 b.6XiXaXiXtXuX&X+.M F         ",
"    Q | A.+X%XtXiXwXtXiXwXtXiXwXtXtXrXrX6X.Xz.'.7X0X%XaXuXtXwXtXtX,XP.M.7X6XJ i ` ] p 1 ; ; ; = * & 8 Y.aXuXwXtX0Xm.@.} +       ",
"  c.K @.!.@X9XiXiXiXiXiXtXiXiXiXiXiXrX6X Xz.OXyX<XR E pXpXiXuXiXeX].x.4XeXJ G A.$X2X%Xv.5 = = = = = $ 4 5XpXiXiXuX}.{ M Z       ",
"  i.` ,.oX&XqXuXiXtXtXiXtXtXiXtXiXuX:X_.P.#XaX!.B & V yXiXiXiXrX>Xl. XyX) 5 v.yXaXyX7XaXE.5 = = = = * > T.pXtXiXiX%X+.#.J       ",
"  ( } 2..X>XwXtXiXtXtXuXtXtXiXwXtX,XP._.8XuXm.4 = = 7 8XiXuXwX9XP.z.7XY.3 F 8XaXuX9X@X&XaXE.3 % = = = = h.pXrXiXtX<Xv.@.L @     ",
"  E | F.+X9XtXiXiXiXiXiXtXiXiXiXeX Xl.8X6X) > * = = 3 %XpXpXrX@Xx.@X7XB 1 m.pXpXiXiX9X+X@XaXa.% % = = $ E aXiXiXiXrXm.@.` +     ",
"j.K | Q.+XeXtXtXiXtXiXiXiXiXiXtXeX_._.eXW & = = = = > [.pXiX6XM._.yXb.> F 6XpXtXiXiXtX8X].#X5X8 % = = * B yXiXiXiXiXY.%.' 8     ",
"j.K $.!..XeXtXtXiXtXtXtXwXtXiXwX<Xz.].,X4 * ; * = ; = m.pXuX.Xx.#X5X6 < b.pXiXtXtXiXwXwX@X`.yXa.& = % % 4 ,XiXiXtXtX[.>.#.8     ",
"y.L &.R.&XuXuXiXiXtXiXpXtXiXiXtX6Xz.+XXX> = * * = = % i.pX0X_.M.yXh.& i &XpXiXtXiXiXtXiX6X_.#X%X2 % ; s K %XiXiXiXiX@XX.@.C     ",
"d.` ,.|.&XuXuXuXiXtXiXiXtXtXiXtX:Xl.#XT.X < & * = = = E pX&Xx.@X>X6 < p.aXiXiXiXiXiXtXiXeX].].7XH 1 ` B.%XiXiXiXiXtX>XO.&.H     ",
"r.} ,.|.%XuXwXrXiXtXrXtXtXtXiXqX.Xx.8Xm.X , X * = = % V yXOXM.yXb.& 5 |.pXiXtXwXtXiXwXtXrX%XP.7Xn.G Q.9XpXuXtXtXtXtX>XO.$.H     ",
"r.` ,.oX,XaXtXiXiXtXiXiXiXiXiXeX{.l.0X( & , . % = = = 7 8X+X@X6X8 = J yXpXiXiXuXiXiXiXiXiX<X`.#X,XoXaXpXiXiXiXiXiXiX4XO.&.H     ",
"r.] ,.oX,XiXtXiXpXiXiXiXtXiXiXqX`._.yXV * 6 4 $ = = = 4 #X7XyXK.* 1 m.pXiXiXiXtXiXiXiXiXiXeX@X#XuXaXpXuXiXiXuXiXiXiX>XO.&.J     ",
"r.] *.!.%XuXwXrXiXwXtXiXwXqX6XXXl.].8X6 = W B o = = = > }.pXaXV % i 4XpXtXtXiXwXtXtXwXtXiXwXeXqXqXuXtXwXtXtXtXtXtXtXXX=.&.C     ",
"y.P *.R.:XuXtXiXiXtXiXiXqX X`. X X8XXX> , n.V $ = = = > J.pX.X> < s.pXpXtXiXiXtXiXiXtXiXiXtXiXiXtXiXiXtXiXiXtXiXiXiX.X>.&.Z     ",
"w./ *.Q.@XuXiXiXiXiXiXeX Xz.OXyXaXpXm.& 5 .XC $ = = = % i.pXE $ 5 |.pXpXiXiXiXiXiXiXiXiXiXtXiXiXiXiXiXiXiXiXtXiXiXiXY.5.%.8     ",
"  E &.F.@XeXwXrXiXrXwX@Xk.].yXT.{.pX! * S 7XW $ = = = % E :X2 ; J yXiXiXwXtXtXwXtXiXtXtXiXwXiXtXrXtXtXwXtXiXwXtXtXtXm.,.{ @     ",
"  !  .D.@XqXtXiXiXrX,Xz._.yXoX4 ~ rXB = p.pXW $ = = ; = V u.& < b.pXiXiXtXiXiXtXiXiXtXiXiXtXiXiXtXiXiXtXiXiXiXiXiXeXv.,.] @     ",
"  t.{ 4.oX7XtXiXpXeX].z.7X:Xt o 7 [.2 5 XXpXW $ = % = % , O % t &XpXiXiXiXiXiXiXiXiXiXiXiXiXpXiXiXiXiXiXiXiXiXiXiX,XB.<.K       ",
"  y.] <.!.>XqXtXiX<XP.'.0XC X = , ~ > R aXpX! & = = ; ; X o : R aXuXtXiXtXtXtXwXtXiXwXtXtXwXtXtXwXtXtXtXtXtXtXtXiXT.5.,.I       ",
"    ^ 5.F.&XqXiXiX8Xk.OX:X> * = > O 1 K.pXpX( $ = = = = & X : h.pXiXiXiXtXiXiXtXiXiXtXiXiXtXiXiXtXiXiXtXiXiXtXiXiXJ.<.%.+       ",
"    u.%.4.%X9XiXiX:Xl.#XT.X * * * . B 6X7XyXa.$ = = = = & = 1 .XpXtXiXiXtXiXiXtXiXiXtXiXiXiXiXiXtXiXiXiXiXiXtXpX8XB.*...        ",
"    y.X.<.Q.:XqXuX Xx.7Xh.X ; y ` / |.aX#X&X6XS % ; = : y ` / 8XiXtXtXiXwXtXiXtXtXtXtXtXtXtXtXiXtXtXtXwXtXiXtXiX[.2.*.C         ",
"      ) &.D.@XeXuX.Xz.0XE ; ` -.!.9XpXiX>X].0X%X5 ; a [ B.!.6XpXpXtXiXiXtXiXiXtXiXiXtXiXiXtXiXiXtXiXiXtXiXiXiXeXV.<.>.+         ",
"      d.{ <.!.5XrX@X_.7Xa.P Q.6XaXpXuXiXyX+XOXyXU.K Z.*XeXpXaXiXiXiXiXiXiXiXiXtXiXiXiXiXiXiXiXiXiXiXiXtXiXpXpX}.2.<.R           ",
"        ) *.G.%X9X,X{.4XyX,XaXiXuXiXtXtXiX<X X@XyX,XeXpXiXuXrXrXiXwXtXiXtXtXtXtXiXtXtXtXiXwXtXtXwXtXiXtXiXiX,XV.<.>.#           ",
"        u.[ <.Q.8XwX6X4X0XiXaXtXiXiXtXtXiXtX9X>X6XaXaXuXiXiXtXtXiXtXtXiXtXtXiXtXiXiXtXtXiXtXiXiXtXtXiXtXiXuXU.1.6.Q             ",
"          ) >.q.$X0XiXaXtXtXiXiXiXiXiXiXiXiXiXiXrXiXpXiXiXpXiXiXiXtXiXiXiXiXiXiXiXiXiXiXiXtXiXiXiXiXpXiXpX@XB.6.=.#             ",
"          y...<.G.:XqXiXtXtXtXtXtXiXtXtXiXwXtXiXrXrXuXrXtXtXwXtXiXtXiXtXtXtXiXwXiXtXtXtXiXtXiXtXwXtXiXiX8XC.6.1.I               ",
"            u.X.<.).,XuXtXiXiXtXiXiXtXtXiXtXiXiXtXiXiXtXiXiXrXiXiXtXiXiXtXtXiXtXiXiXtXtXiXtXiXiXtXiXpXeXK.q.7./                 ",
"              ) >.6./.6XtXiXiXiXiXiXiXiXiXiXiXiXiXiXiXiXiXiXiXiXiXiXiXiXiXiXiXiXiXiXiXiXiXiXpXiXiXpXaXI.3.7.=.#                 ",
"                ) *.8./.6XtXiXtXtXiXtXtXiXwXtXiXwXtXtXtXtXtXwXtXiXwXtXiXwXtXtXwXtXiXwXtXiXrXtXpXpXuXY.3.7.2.T                   ",
"                d.) 1.8./.<XtXtXtXiXtXtXiXtXtXiXtXiXiXtXtXiXrXiXiXtXtXiXtXiXiXtXiXiXtXiXiXtXiXpXeXY.3.7.:.I                     ",
"                  d.o.1.8.~.9XrXiXpXiXiXiXiXiXpXtXiXiXtXiXiXiXiXiXiXiXiXtXiXiXiXiXpXiXiXpXpXpX7XL.4.9.2.I                       ",
"                    d.o.5.8.H.1XeXiXtXtXtXtXtXiXtXtXiXtXtXiXrXtXiXrXtXiXtXtXiXtXtXiXtXiXpXaX#XC.q.9.:.Y                         ",
"                        p.5.<.G.(.9XrXiXiXtXtXiXtXiXiXrXiXiXrXtXiXrXiXiXrXiXiXtXiXpXpXpX7XE.S.9.9.;.U                           ",
"                          i.X.<.8.H.-XqXaXiXpXpXiXiXiXiXiXiXiXiXiXiXiXiXiXiXpXpXpXpX7XoXF.q.9.q._ T                             ",
"                            g.o.5.<.0.H.-X<XeXiXtXiXiXiXiXiXtXiXiXtXiXpXiXpXpXeX8XoXW.q.9.9.:.(                                 ",
"                                f.O.1.6.9.G.~.;X1XqXyXuXiXiXiXiXpXiXpXuX0X,X=XQ.S.9.9.9.:._ U                                   ",
"                                  x.h.;.2.8.8.0.G.~./.(.;X1X1X1X1X=X^./.).H.0.0.9.0.S.v.u.                                      ",
"                                        h.v.-.4.8.9.9.9.9.9.0.0.9.0.9.9.9.9.q.S.Z.f.w.                                          ",
"                                              g.v.v.-.3.3.3.3.q.q.3.3.Z.Z.v.i.y.                                                ",
"                                                      j.c.f.f.f.f.d.d.d.                                                        "
};
